<svg width="16" height="9" viewBox="0 0 16 9" fill="none" xmlns="http://www.w3.org/2000/svg">
<path d="M11.935 2.57902L13.1632 0.371016C13.2438 0.224837 13.2151 0.112742 13.0769 0.0339214C12.9268 -0.0340453 12.8116 0.000394508 12.731 0.134806L11.4857 2.36046C10.3899 1.8883 9.23087 1.65178 8.00869 1.65178C6.78626 1.65178 5.62716 1.88835 4.53177 2.36046L3.28638 0.134806C3.20545 0.000394508 3.09017 -0.033741 2.94049 0.0339214C2.80195 0.113097 2.77327 0.224837 2.8542 0.371016L4.08241 2.57902C2.83703 3.19797 1.84515 4.05998 1.10715 5.16693C0.369155 6.27448 0 7.48479 0 8.8H16C16 7.4851 15.6308 6.27473 14.8928 5.16693C14.1548 4.05998 13.1686 3.19797 11.935 2.57902ZM4.83436 5.7906C4.70154 5.92034 4.54291 5.98491 4.35851 5.98491C4.17375 5.98491 4.01835 5.92034 3.89156 5.7906C3.76478 5.66146 3.70139 5.50747 3.70139 5.32716C3.70139 5.14745 3.76478 4.99316 3.89156 4.86372C4.01835 4.73458 4.17412 4.67001 4.35851 4.67001C4.54291 4.67001 4.70154 4.73458 4.83436 4.86372C4.96687 4.99346 5.03343 5.14745 5.03343 5.32716C5.03307 5.50717 4.96655 5.66146 4.83436 5.7906ZM12.1251 5.7906C11.9981 5.92034 11.8423 5.98491 11.6582 5.98491C11.4734 5.98491 11.3149 5.92034 11.1823 5.7906C11.0495 5.66146 10.9833 5.50747 10.9833 5.32716C10.9833 5.14745 11.0495 4.99316 11.1823 4.86372C11.3149 4.73458 11.4734 4.67001 11.6582 4.67001C11.8426 4.67001 11.998 4.73458 12.1251 4.86372C12.252 4.99346 12.3153 5.14745 12.3153 5.32716C12.3153 5.50717 12.252 5.66146 12.1251 5.7906Z" fill="white"/>
</svg>
