<svg width="16" height="16" viewBox="0 0 16 16" fill="none" xmlns="http://www.w3.org/2000/svg">
<g clip-path="url(#clip0_3077_286)">
<path fill-rule="evenodd" clip-rule="evenodd" d="M11.8565 -0.182211C11.9311 -0.120909 11.9849 -0.0457068 12.0143 0.0360143V0.66455H14.2058C14.4811 0.66455 14.7043 0.887736 14.7043 1.16305V2.27968C14.7043 4.02041 13.5545 5.4926 11.973 5.97823C11.6268 7.37358 10.1292 8.42378 8.3327 8.42709H6.88981C5.09894 8.42379 3.60511 7.38016 3.25283 5.99137C1.6488 5.51964 0.477783 4.03641 0.477783 2.27968V1.16305C0.477783 0.887736 0.700969 0.66455 0.976281 0.66455H3.17417V0.181659C3.17432 0.0451215 3.24032 -0.0857515 3.35766 -0.182211C3.47484 -0.2788 3.63383 -0.333124 3.7997 -0.333252H11.4145C11.5802 -0.332737 11.7391 -0.2785 11.8565 -0.182211ZM12.0143 5.13011C13.1327 4.66725 13.9195 3.56535 13.9195 2.27968V1.44933H12.0143V5.13011ZM3.16778 1.64779V1.44933H1.26256V2.27968C1.26256 3.56535 2.04939 4.66725 3.16778 5.13011V4.69536L3.17 4.69571V1.64744L3.16778 1.64779ZM9.35091 11.0393H8.77125V8.79082C8.61753 8.80477 8.46302 8.81163 8.30836 8.81142H6.86547C6.71081 8.81163 6.5563 8.80477 6.40258 8.79082V11.0427H5.82709C5.55634 11.0431 5.29685 11.132 5.10564 11.2899C4.91392 11.4472 4.80591 11.6608 4.80539 11.8837V12.3574C4.94353 12.3414 5.08286 12.3333 5.22241 12.3334H9.95976C10.0993 12.3333 10.2386 12.3414 10.3768 12.3574V11.8837C10.3768 11.4173 9.91749 11.0393 9.35091 11.0393ZM9.96199 12.718H5.22047C3.83858 12.718 2.71836 13.6401 2.71836 14.7777V15.375C2.71836 15.5361 2.87703 15.6667 3.07282 15.6667H12.1096C12.3038 15.6667 12.4618 15.5382 12.4641 15.3784V14.7777C12.4641 13.6401 11.3438 12.718 9.96199 12.718Z" fill="white"/>
</g>
<defs>
<clipPath id="clip0_3077_286">
<rect width="16" height="16" fill="white"/>
</clipPath>
</defs>
</svg>
