<svg width="32" height="32" viewBox="0 0 32 32" fill="none" xmlns="http://www.w3.org/2000/svg">
<path d="M2.42186 30.3197C2.93321 30.8413 3.73339 30.8887 4.29725 30.4619L4.4588 30.3197L16 18.5465L27.5412 30.3197C28.0526 30.8413 28.8527 30.8887 29.4166 30.4619L29.5781 30.3197C30.0895 29.7981 30.136 28.9818 29.7176 28.4067L29.5781 28.2419L17.0185 15.4303C16.5071 14.9087 15.7069 14.8613 15.1431 15.2881L14.9815 15.4303L2.42186 28.2419C1.85938 28.8157 1.85938 29.7459 2.42186 30.3197Z" fill="white"/>
<path d="M2.42186 16.3197C2.93321 16.8413 3.73339 16.8887 4.29725 16.4619L4.4588 16.3197L16 4.54652L27.5412 16.3197C28.0526 16.8413 28.8527 16.8887 29.4166 16.4619L29.5781 16.3197C30.0895 15.7981 30.136 14.9818 29.7176 14.4067L29.5781 14.2419L17.0185 1.43032C16.5071 0.908719 15.7069 0.861301 15.1431 1.28807L14.9815 1.43032L2.42186 14.2419C1.85938 14.8157 1.85938 15.7459 2.42186 16.3197Z" fill="white"/>
</svg>
