<svg width="8" height="16" viewBox="0 0 8 16" fill="none" xmlns="http://www.w3.org/2000/svg">
<path d="M5.8123 7.29L2.80625 6.31C2.4594 6.19 2.21927 5.83 2.21927 5.42C2.21927 4.91 2.58391 4.5 3.03749 4.5H4.87847C5.21643 4.5 5.55439 4.62 5.83009 4.83C5.99907 4.96 6.23031 4.93 6.3726 4.77L7.34201 3.71C7.53767 3.49 7.51099 3.13 7.28865 2.94C6.61273 2.34 5.75894 2 4.88736 2V0.5C4.88736 0.22 4.68281 0 4.44268 0H3.55332C3.30429 0 3.10863 0.22 3.10863 0.5V2H3.03749C1.26765 2 -0.155335 3.71 0.0136444 5.74C0.129262 7.18 1.10756 8.35 2.34378 8.76L5.18975 9.7C5.5366 9.82 5.77673 10.18 5.77673 10.58C5.77673 11.09 5.41209 11.5 4.95851 11.5H3.11753C2.77957 11.5 2.44161 11.38 2.16591 11.17C1.99693 11.04 1.76569 11.07 1.6234 11.23L0.653987 12.3C0.458327 12.52 0.485008 12.87 0.707349 13.07C1.38327 13.66 2.23706 14 3.10863 14V15.5C3.10863 15.77 3.31319 16 3.55332 16H4.44268C4.6917 16 4.88736 15.77 4.88736 15.5V13.99C6.18584 13.96 7.39537 13.1 7.82227 11.72C8.42704 9.8 7.42205 7.82 5.8123 7.29Z" fill="#41B15B"/>
</svg>
