<svg width="15" height="10" viewBox="0 0 15 10" fill="none" xmlns="http://www.w3.org/2000/svg">
<path d="M10.7217 6.97557C10.6063 6.97557 10.4935 6.9388 10.3976 6.86989C10.3017 6.80099 10.2269 6.70305 10.1828 6.58847C10.1386 6.47388 10.1271 6.3478 10.1496 6.22615C10.1721 6.10451 10.2276 5.99278 10.3092 5.90508C10.3908 5.81738 10.4947 5.75765 10.6079 5.73346C10.7211 5.70926 10.8383 5.72168 10.9449 5.76914C11.0515 5.81661 11.1426 5.89698 11.2067 6.0001C11.2708 6.10323 11.305 6.22447 11.305 6.34849C11.305 6.5148 11.2436 6.67431 11.1342 6.79191C11.0248 6.90951 10.8764 6.97557 10.7217 6.97557ZM4.2783 6.97557C4.16293 6.97557 4.05014 6.9388 3.95422 6.86989C3.85829 6.80099 3.78352 6.70305 3.73937 6.58847C3.69522 6.47388 3.68367 6.3478 3.70617 6.22615C3.72868 6.10451 3.78424 5.99278 3.86582 5.90508C3.9474 5.81738 4.05134 5.75765 4.1645 5.73346C4.27765 5.70926 4.39494 5.72168 4.50153 5.76914C4.60812 5.81661 4.69923 5.89698 4.76332 6.0001C4.82742 6.10323 4.86163 6.22447 4.86163 6.34849C4.86163 6.5148 4.80017 6.67431 4.69078 6.79191C4.58138 6.90951 4.43301 6.97557 4.2783 6.97557ZM10.9307 3.20053L12.0959 1.03187C12.1145 1.00217 12.1271 0.968695 12.1332 0.933517C12.1392 0.898339 12.1384 0.862208 12.1309 0.827363C12.1234 0.792517 12.1093 0.759698 12.0895 0.730939C12.0698 0.70218 12.0447 0.678094 12.0159 0.660171C11.9871 0.642248 11.9552 0.630871 11.9222 0.626745C11.8891 0.622618 11.8556 0.62583 11.8238 0.636181C11.7919 0.646532 11.7624 0.663802 11.737 0.686921C11.7116 0.71004 11.6909 0.738517 11.6762 0.770586L10.4964 2.96721C9.55399 2.51284 8.53284 2.27794 7.5 2.27794C6.46716 2.27794 5.44601 2.51284 4.50361 2.96721L3.32382 0.770586C3.30909 0.738517 3.28839 0.71004 3.263 0.686921C3.23761 0.663802 3.20808 0.646532 3.17623 0.636181C3.14438 0.62583 3.1109 0.622618 3.07785 0.626745C3.0448 0.630871 3.01289 0.642248 2.9841 0.660171C2.9553 0.678094 2.93024 0.70218 2.91046 0.730939C2.89068 0.759698 2.8766 0.792517 2.8691 0.827363C2.86159 0.862208 2.86083 0.898339 2.86684 0.933517C2.87285 0.968695 2.88552 1.00217 2.90406 1.03187L4.06927 3.20053C2.06844 4.37031 0.700278 6.54759 0.5 9.11994H14.5C14.2997 6.54759 12.9313 4.37031 10.9307 3.20053Z" fill="#9398A0"/>
</svg>
