<svg width="16" height="16" viewBox="0 0 16 16" fill="none" xmlns="http://www.w3.org/2000/svg">
<g clip-path="url(#clip0_3077_279)">
<path d="M0.98999 14.39C0.98999 14.98 1.43999 15.46 1.98999 15.46H6.98999V10.13H0.98999V14.39ZM8.98999 15.46H13.99C14.54 15.46 14.99 14.98 14.99 14.39V10.12H8.98999V15.46ZM14.99 4.79H13.67C13.86 4.39 13.99 3.94 13.99 3.46C13.99 1.84 12.76 0.529999 11.24 0.529999C9.93999 0.529999 9.09999 1.24 8.01999 2.81C6.94999 1.24 6.09999 0.529999 4.79999 0.529999C3.27999 0.529999 2.04999 1.85 2.04999 3.46C2.04999 3.94 2.16999 4.39 2.36999 4.79H0.98999C0.43999 4.79 -0.0100098 5.27 -0.0100098 5.86V8.53C-0.0100098 8.82 0.20999 9.06 0.48999 9.06H15.49C15.76 9.06 15.99 8.82 15.99 8.53V5.86C15.99 5.27 15.55 4.79 14.99 4.79ZM4.79999 4.79C4.10999 4.79 3.54999 4.19 3.54999 3.46C3.54999 2.72 4.10999 2.13 4.79999 2.13C5.41999 2.13 5.87999 2.24 7.48999 4.8H4.79999V4.79ZM11.24 4.79H8.54999C10.16 2.24 10.6 2.12 11.24 2.12C11.93 2.12 12.49 2.72 12.49 3.45C12.49 4.2 11.93 4.79 11.24 4.79Z" fill="white"/>
</g>
<defs>
<clipPath id="clip0_3077_279">
<rect width="16" height="16" fill="white"/>
</clipPath>
</defs>
</svg>
